HIERARCHY
ROOT Hips
{
  OFFSET 48.6133 93.7281 15.8582
  CHANNELS 6 Xposition Yposition Zposition Zrotation Xrotation Yrotation
  JOINT spine
  {
    OFFSET 0 7.4756 0.429885
    CHANNELS 3 Zrotation Xrotation Yrotation
    JOINT spine1
    {
      OFFSET 0 9.92301 0
      CHANNELS 3 Zrotation Xrotation Yrotation
      JOINT spine2
      {
        OFFSET 0 9.50804 0
        CHANNELS 3 Zrotation Xrotation Yrotation
        JOINT Neck
        {
          OFFSET 0 24.4111 1.16384
          CHANNELS 3 Zrotation Xrotation Yrotation
          JOINT Head
          {
            OFFSET 0 7.37523 0
            CHANNELS 3 Zrotation Xrotation Yrotation
            End Site
            {
              OFFSET 0 17.8522 -5.88741
            }
          }
        }
        JOINT RightShoulder
        {
          OFFSET -4.00356 10.2679 -0.557468
          CHANNELS 3 Zrotation Xrotation Yrotation
          JOINT RightArm
          {
            OFFSET 0 13.4673 0
            CHANNELS 3 Zrotation Xrotation Yrotation
            JOINT RightArmRoll
            {
              OFFSET 0 6.79858 0
              CHANNELS 3 Zrotation Xrotation Yrotation
              JOINT RightForeArm
              {
                OFFSET 0 19.8018 0
                CHANNELS 3 Zrotation Xrotation Yrotation
                JOINT RightForeArmRoll
                {
                  OFFSET 0 7.62905 0
                  CHANNELS 3 Zrotation Xrotation Yrotation
                  JOINT RightHand
                  {
                    OFFSET 0 15.3098 0
                    CHANNELS 3 Zrotation Xrotation Yrotation
                    End Site
                    {
                      OFFSET 0 0 0
                    }
                  }
                }
              }
            }
          }
        }
        JOINT LeftShoulder
        {
          OFFSET 4.00356 10.2679 -0.557468
          CHANNELS 3 Zrotation Xrotation Yrotation
          JOINT LeftArm
          {
            OFFSET 0 13.4673 0
            CHANNELS 3 Zrotation Xrotation Yrotation
            JOINT LeftArmRoll
            {
              OFFSET 0 6.79858 0
              CHANNELS 3 Zrotation Xrotation Yrotation
              JOINT LeftForeArm
              {
                OFFSET 0 19.8018 0
                CHANNELS 3 Zrotation Xrotation Yrotation
                JOINT LeftForeArmRoll
                {
                  OFFSET 0 7.62905 0
                  CHANNELS 3 Zrotation Xrotation Yrotation
                  JOINT LeftHand
                  {
                    OFFSET 0 15.3098 0
                    CHANNELS 3 Zrotation Xrotation Yrotation
                    End Site
                    {
                      OFFSET 0 0 0
                    }
                  }
                }
              }
            }
          }
        }
      }
    }
  }
  JOINT RightUpLeg
  {
    OFFSET -6.62609 -1.21505 -1.01927
    CHANNELS 3 Zrotation Xrotation Yrotation
    JOINT RightUpLegRoll
    {
      OFFSET 0 17.9517 0
      CHANNELS 3 Zrotation Xrotation Yrotation
      JOINT RightLeg
      {
        OFFSET 0 -22.2304 0
        CHANNELS 3 Zrotation Xrotation Yrotation
        JOINT RightLegRoll
        {
          OFFSET 0 22.3032 0
          CHANNELS 3 Zrotation Xrotation Yrotation
          JOINT RightFoot
          {
            OFFSET 0 18.5636 0
            CHANNELS 3 Zrotation Xrotation Yrotation
            JOINT RightToeBase
            {
              OFFSET 0 15.5183 0
              CHANNELS 3 Zrotation Xrotation Yrotation
              End Site
              {
                OFFSET 0.00657761 7.51539 -0.866262
              }
            }
          }
        }
      }
    }
  }
  JOINT LeftUpLeg
  {
    OFFSET 6.62609 -1.21505 -1.01927
    CHANNELS 3 Zrotation Xrotation Yrotation
    JOINT LeftUpLegRoll
    {
      OFFSET 0 17.9518 0
      CHANNELS 3 Zrotation Xrotation Yrotation
      JOINT LeftLeg
      {
        OFFSET 0 22.2303 0
        CHANNELS 3 Zrotation Xrotation Yrotation
        JOINT LeftLegRoll
        {
          OFFSET 0 22.5093 0
          CHANNELS 3 Zrotation Xrotation Yrotation
          JOINT LeftFoot
          {
            OFFSET 0 18.3575 0
            CHANNELS 3 Zrotation Xrotation Yrotation
            JOINT LeftToeBase
            {
              OFFSET 0 15.5183 0
              CHANNELS 3 Zrotation Xrotation Yrotation
              End Site
              {
                OFFSET -0.029478 7.51539 -0.866263
              }
            }
          }
        }
      }
    }
  }
}
MOTION
Frames: 9
Frame Time: 0.00208333
51.5553 108.644 20.494 -2.1983 -0.730693 0.724031 0.0362583 -1.67849 0.14219 0.0752805 0.645834 0.280837 0.0719545 2.29089 0.27969 -3.92819 -3.0633 -4.43293 7.61894 11.839 -5.07976 35.122 -10.5973 -6.68191 59.988 16.9997 45.766 1.9061e-005 -1.76138e-006 -2.03962e-006 -0.495298 25.4061 -1.75615 1.24676e-005 -1.01222e-006 -3.00566 8.02938 -4.95144 0.697638 -33.0973 -19.0215 15.2713 -47.9139 13.7241 -43.8519 3.02819e-006 -5.33099e-007 1.81178e-005 0.564875 33.61 0.463216 1.3465e-006 -8.84611e-007 3 -8.03023 -4.9514 -0.697641 171.703 0.562721 1.97134 -180 7.01562e-015 178.99 -179.624 6.70657 179.555 7.32479e-006 -1.12392e-006 0.15331 -19.4868 69.1524 20.5364 8.13686 25.2326 -3.4879 -168.914 2.14284 -1.78479 4.54188e-006 -4.6773e-006 -1.13447 -0.647813 -6.64719 0.140208 -1.81564e-007 -4.47947e-006 0.00882972 17.4427 66.3814 -18.2899 -8.1365 25.2327 3.48773 
51.5854 108.761 20.4831 -2.20578 -0.596003 0.651663 0.0552026 -1.68921 0.136588 0.113052 0.624448 0.267729 0.109903 2.26951 0.265944 -4.38212 -3.17919 -4.35213 8.03393 11.9347 -5.06096 35.1982 -10.5463 -6.63442 60.4635 16.8301 45.4082 1.9061e-005 -1.76138e-006 -2.03962e-006 -0.436987 25.2075 -1.76585 1.24676e-005 -1.01222e-006 -3.00566 8.02938 -4.95144 0.697638 -33.4948 -19.1015 15.292 -48.4333 13.4977 -43.7423 3.02819e-006 -5.33099e-007 1.81178e-005 0.603443 33.6543 0.45966 1.3465e-006 -8.84611e-007 3 -8.03023 -4.9514 -0.697641 171.843 0.81537 1.89813 -180 7.01562e-015 178.992 -179.641 6.88559 179.55 7.32479e-006 -1.12392e-006 0.15903 -19.5286 69.1924 20.5734 8.13687 25.2326 -3.4879 -169.023 2.29799 -1.75126 4.54188e-006 -4.6773e-006 -1.1353 -0.678794 -6.70097 0.140097 -1.81564e-007 -4.47947e-006 0.00941464 17.4149 66.3325 -18.2538 -8.1365 25.2327 3.48773 
51.5574 108.924 20.45 -2.21131 -0.465019 0.580186 0.0732242 -1.69911 0.13132 0.14898 0.604692 0.255379 0.145996 2.24975 0.252986 -4.81344 -3.29518 -4.27386 8.42622 12.0304 -5.04159 35.2808 -10.4987 -6.5904 60.9353 16.6667 45.0549 1.9061e-005 -1.76138e-006 -2.03962e-006 -0.379162 25.0079 -1.77516 1.24676e-005 -1.01222e-006 -3.00566 8.02938 -4.95144 0.697638 -33.883 -19.176 15.3085 -48.9636 13.2672 -43.6302 3.02819e-006 -5.33099e-007 1.81178e-005 0.641711 33.7017 0.455889 1.3465e-006 -8.84611e-007 3 -8.03023 -4.9514 -0.697641 171.98 1.06512 1.82718 -180 7.01563e-015 178.994 -179.659 7.06403 179.544 7.32479e-006 -1.12392e-006 0.164754 -19.5712 69.2331 20.6112 8.13688 25.2326 -3.48791 -169.136 2.44921 -1.71503 4.54188e-006 -4.6773e-006 -1.13614 -0.70841 -6.75426 0.140081 -1.81564e-007 -4.47947e-006 0.0100407 17.3873 66.2834 -18.2177 -8.1365 25.2327 3.48773 
51.5586 109.031 20.4179 -2.21505 -0.339171 0.510402 0.0900298 -1.7079 0.126549 0.18248 0.58715 0.244146 0.179648 2.23221 0.241187 -5.21472 -3.41152 -4.19948 8.78874 12.1257 -5.02204 35.3768 -10.4548 -6.55004 61.3972 16.5071 44.7071 1.9061e-005 -1.76138e-006 -2.03962e-006 -0.321333 24.8078 -1.78428 1.24676e-005 -1.01222e-006 -3.00566 8.02938 -4.95144 0.697638 -34.2598 -19.244 15.3201 -49.5057 13.0318 -43.5133 3.02819e-006 -5.33099e-007 1.81178e-005 0.678472 33.7509 0.452305 1.3465e-006 -8.84611e-007 3 -8.03023 -4.9514 -0.697641 172.113 1.30904 1.75886 -180 7.01563e-015 178.995 -179.677 7.23921 179.539 7.32479e-006 -1.12392e-006 0.170371 -19.6137 69.2738 20.6492 8.13689 25.2326 -3.48791 -169.251 2.59496 -1.67653 4.54188e-006 -4.6773e-006 -1.13693 -0.737003 -6.8064 0.140116 -1.81564e-007 -4.47947e-006 0.010696 17.3599 66.2346 -18.182 -8.1365 25.2327 3.48773 
51.5303 109.171 20.3897 -2.2172 -0.219891 0.443111 0.105326 -1.71529 0.122441 0.212973 0.572409 0.234389 0.210272 2.21747 0.230914 -5.57853 -3.52849 -4.13034 9.1144 12.2201 -5.00269 35.4929 -10.4152 -6.51349 61.843 16.3492 44.3662 1.9061e-005 -1.76138e-006 -2.03962e-006 -0.263009 24.6076 -1.79336 1.24676e-005 -1.01222e-006 -3.00566 8.02938 -4.95144 0.697638 -34.623 -19.3045 15.3265 -50.0602 12.791 -43.389 3.02819e-006 -5.33099e-007 1.81178e-005 0.712518 33.8004 0.449312 1.3465e-006 -8.84611e-007 3 -8.03023 -4.9514 -0.697641 172.243 1.54421 1.69353 -180 7.01563e-015 178.997 -179.698 7.40853 179.534 7.32479e-006 -1.12392e-006 0.175769 -19.6556 69.3139 20.6869 8.1369 25.2326 -3.48791 -169.369 2.73368 -1.63618 4.54188e-006 -4.6773e-006 -1.13759 -0.764917 -6.85676 0.140159 -1.81564e-007 -4.47947e-006 0.0113689 17.3329 66.1864 -18.1471 -8.1365 25.2327 3.48773 
51.5371 109.281 20.3358 -2.21795 -0.108611 0.379116 0.11882 -1.72099 0.119161 0.239876 0.561053 0.226466 0.237283 2.20611 0.222538 -5.89743 -3.64636 -4.06782 9.39611 12.3131 -4.98393 35.6362 -10.3802 -6.48092 62.2664 16.1906 44.0332 1.9061e-005 -1.76138e-006 -2.03962e-006 -0.203705 24.4077 -1.80258 1.24676e-005 -1.01222e-006 -3.00566 8.02938 -4.95144 0.697638 -34.9704 -19.3565 15.327 -50.628 12.544 -43.2549 3.02819e-006 -5.33099e-007 1.81178e-005 0.742638 33.849 0.447316 1.3465e-006 -8.84611e-007 3 -8.03023 -4.9514 -0.697641 172.369 1.7677 1.63156 -180 7.01564e-015 178.999 -179.72 7.56931 179.53 7.32479e-006 -1.12392e-006 0.180837 -19.6959 69.3526 20.7236 8.13692 25.2326 -3.48792 -169.487 2.86382 -1.59438 4.54188e-006 -4.6773e-006 -1.13805 -0.792494 -6.90468 0.140166 -1.81564e-007 -4.47947e-006 0.0120476 17.3065 66.1394 -18.1131 -8.1365 25.2327 3.48773 
51.5143 109.416 20.3106 -2.21751 -0.00676206 0.319216 0.130218 -1.72469 0.116873 0.262608 0.553668 0.220738 0.260094 2.19873 0.216426 -6.16402 -3.76539 -4.01326 9.62679 12.4045 -4.96612 35.8134 -10.3502 -6.45251 62.6611 16.029 43.7094 1.9061e-005 -1.76138e-006 -2.03962e-006 -0.142934 24.2085 -1.81212 1.24676e-005 -1.01222e-006 -3.00566 8.02938 -4.95144 0.697638 -35.3001 -19.3989 15.3211 -51.2098 12.29 -43.1084 3.02819e-006 -5.33099e-007 1.81178e-005 0.767621 33.8952 0.446721 1.3465e-006 -8.84611e-007 3 -8.03023 -4.9514 -0.697641 172.491 1.97657 1.57333 -180 7.01564e-015 179 -179.744 7.71893 179.527 7.32479e-006 -1.12392e-006 0.185462 -19.7341 69.3895 20.7586 8.13693 25.2326 -3.48792 -169.606 2.98382 -1.55157 4.54188e-006 -4.6773e-006 -1.13825 -0.820077 -6.94952 0.140094 -1.81564e-007 -4.47947e-006 0.0127203 17.2809 66.094 -18.0805 -8.1365 25.2327 3.48773 
51.5239 109.514 20.2717 -2.21609 0.0842244 0.264215 0.139226 -1.72612 0.115743 0.280587 0.550838 0.217562 0.278121 2.1959 0.212949 -6.37091 -3.88584 -3.96802 9.79937 12.4937 -4.94967 36.0315 -10.3257 -6.4284 63.0207 15.8621 43.3962 1.9061e-005 -1.76138e-006 -2.03962e-006 -0.0802145 24.0104 -1.82214 1.24676e-005 -1.01222e-006 -3.00566 8.02938 -4.95144 0.697638 -35.6097 -19.4309 15.3082 -51.8063 12.028 -42.9472 3.02819e-006 -5.33099e-007 1.81178e-005 0.786251 33.9379 0.447935 1.3465e-006 -8.84611e-007 3 -8.03023 -4.9514 -0.697641 172.608 2.1679 1.5192 -180 7.01564e-015 179.001 -179.772 7.85476 179.524 7.32479e-006 -1.12392e-006 0.189533 -19.7692 69.4237 20.7914 8.13694 25.2326 -3.48793 -169.726 3.09212 -1.50815 4.54188e-006 -4.6773e-006 -1.13811 -0.848009 -6.99063 0.139898 -1.81564e-007 -4.47947e-006 0.0133753 17.2561 66.0506 -18.0496 -8.1365 25.2327 3.48773 
51.5067 109.634 20.2376 -2.21253 0.165625 0.213238 0.145755 -1.72532 0.115659 0.29363 0.552458 0.216725 0.291181 2.19752 0.211893 -6.51846 -4.01096 -3.93126 9.91308 12.5853 -4.93378 36.2841 -10.3092 -6.41125 63.3519 15.6991 43.0908 1.9061e-005 -1.76138e-006 -2.03962e-006 -0.0156931 23.8087 -1.8323 1.24676e-005 -1.01222e-006 -3.00566 8.02938 -4.95144 0.697638 -35.8975 -19.4536 15.2893 -52.4198 11.7585 -42.7734 3.02819e-006 -5.33099e-007 1.81178e-005 0.800299 33.983 0.450209 1.3465e-006 -8.84611e-007 3 -8.03023 -4.9514 -0.697641 172.719 2.34573 1.46973 -180 7.01565e-015 179.002 -179.802 7.98078 179.523 7.32479e-006 -1.12392e-006 0.193265 -19.8034 69.4573 20.8238 8.13695 25.2326 -3.48793 -169.848 3.19029 -1.46169 4.54188e-006 -4.6773e-006 -1.1378 -0.874761 -7.02859 0.139719 -1.81564e-007 -4.47947e-006 0.0141225 17.2314 66.0076 -18.0191 -8.1365 25.2327 3.48773 
